<?xml version="1.0" standalone="no"?>
<!DOCTYPE svg PUBLIC "-//W3C//DTD SVG 20010904//EN"
        "http://www.w3.org/TR/2001/REC-SVG-20010904/DTD/svg10.dtd">
<svg version="1.0" xmlns="http://www.w3.org/2000/svg"
     width="1599.752603pt" height="1451.723774pt" viewBox="0 0 1599.752603 1451.723774"
     preserveAspectRatio="xMidYMid meet">
    <g transform="translate(-0.123699,1525.894433) rotate(-360.00) scale(0.095238,-0.095238)"
       fill="#000000" stroke="none">
        <path d="M6437 16004 c-75 -25 -101 -39 -157 -84 -65 -53 -122 -146 -142 -233
-20 -86 -23 -472 -6 -656 39 -412 216 -812 489 -1107 l57 -61 -113 -64 c-582
-327 -1047 -882 -1267 -1514 -49 -139 -105 -356 -122 -473 l-13 -90 -75 -19
c-447 -114 -847 -461 -1113 -964 -111 -210 -231 -527 -284 -753 -10 -44 -22
-83 -26 -88 -10 -11 -232 18 -367 47 -248 53 -500 161 -681 289 -117 84 -281
251 -358 366 -115 172 -215 416 -264 642 -51 234 -73 523 -73 944 -1 252 -11
304 -82 398 -89 117 -206 176 -349 177 -199 1 -361 -117 -420 -306 -19 -61
-21 -98 -21 -390 0 -177 5 -385 11 -463 116 -1486 939 -2381 2361 -2567 66 -8
124 -15 128 -15 3 0 3 -21 -2 -45 -5 -25 -9 -419 -9 -877 l-1 -832 -1593 -2
-1593 -3 -62 -23 c-129 -49 -228 -154 -269 -285 -69 -221 49 -457 269 -541
l62 -23 1593 -3 1594 -2 0 -381 c0 -573 17 -812 85 -1193 36 -202 36 -200 -35
-200 -69 -1 -294 -33 -448 -65 -656 -135 -1181 -452 -1537 -927 -240 -321
-398 -694 -484 -1145 -51 -261 -62 -396 -67 -818 -6 -450 -3 -480 70 -593 186
-287 612 -255 763 59 l29 60 8 371 c8 408 19 548 57 753 75 408 234 723 486
963 304 289 750 449 1331 477 l146 6 56 -124 c601 -1332 1818 -2349 3235
-2703 439 -110 837 -154 1297 -144 509 12 945 87 1418 244 963 320 1803 935
2402 1759 186 254 372 573 488 833 l60 135 126 -7 c459 -25 838 -136 1126
-328 345 -229 578 -617 669 -1111 38 -205 49 -345 57 -753 l8 -371 29 -60 c86
-179 278 -283 464 -252 172 29 300 141 352 308 18 57 20 99 20 381 0 345 -10
522 -43 747 -85 589 -315 1107 -651 1470 -437 472 -1031 749 -1769 826 -137
14 -128 3 -104 129 55 285 78 666 78 1268 l1 386 1593 2 1593 3 62 23 c129 49
228 154 269 285 69 221 -49 457 -269 541 l-62 23 -1593 3 -1593 2 0 877 c0
693 2 878 13 881 7 2 73 12 147 21 475 63 957 250 1298 505 403 301 690 707
855 1211 131 400 175 728 175 1310 0 286 -2 323 -21 384 -59 189 -221 307
-420 306 -143 -1 -260 -60 -349 -177 -71 -94 -81 -145 -82 -403 0 -545 -37
-864 -133 -1154 -87 -263 -206 -460 -385 -638 -182 -180 -370 -294 -631 -381
-197 -65 -548 -130 -557 -102 -2 6 -14 51 -26 101 -13 49 -42 148 -65 220
-217 673 -585 1150 -1062 1375 -108 52 -238 99 -306 111 -29 6 -37 12 -37 30
0 58 -68 349 -114 488 -136 411 -354 771 -657 1082 -76 77 -184 178 -242 225
-117 94 -317 228 -421 282 -37 19 -67 38 -67 42 0 4 31 42 69 84 195 216 363
544 428 838 39 177 49 294 49 585 0 338 -14 396 -121 515 -107 119 -286 167
-444 119 -135 -40 -234 -134 -288 -273 -21 -54 -23 -84 -30 -389 -8 -366 -13
-401 -88 -563 -105 -228 -315 -427 -552 -524 -171 -70 -190 -72 -718 -76 -521
-5 -600 0 -745 46 -343 108 -592 360 -696 702 -27 91 -28 106 -35 420 -8 360
-12 384 -78 484 -47 70 -125 132 -203 162 -84 32 -210 37 -286 12z m2588
-2711 c795 -62 1460 -581 1706 -1331 82 -252 117 -573 79 -741 -29 -131 -89
-240 -188 -338 -91 -90 -142 -124 -262 -170 l-75 -29 -1827 -3 c-2047 -3
-1901 -9 -2067 73 -175 87 -319 275 -360 471 -32 149 -3 453 64 683 222 762
915 1324 1707 1385 148 11 1078 12 1223 0z m-3796 -2482 c0 -32 141 -291 204
-374 91 -121 266 -288 386 -367 226 -150 461 -234 736 -263 53 -6 391 -10 750
-10 l654 0 0 -4060 0 -4059 -39 6 c-197 30 -338 57 -475 92 -1124 285 -2073
1044 -2598 2078 -206 404 -331 811 -397 1291 l-24 173 0 1943 c0 2134 -4 2003
63 2346 115 588 355 1015 669 1188 63 34 71 36 71 16z m6496 -55 c317 -208
540 -702 630 -1395 18 -138 19 -269 19 -2090 0 -1810 -1 -1953 -19 -2094 -115
-925 -500 -1723 -1141 -2363 -593 -594 -1317 -968 -2143 -1107 -87 -15 -175
-27 -194 -27 l-36 0 0 4058 0 4059 671 0 c381 0 718 4 780 10 577 57 1062 425
1293 979 20 47 22 47 140 -30z"/>
    </g>
</svg>
